#!OML:ASF E:\acrobat2\Project_11_07_03\Capture day 1\Session 1\Acrobat.ASF
:FULLY-SPECIFIED
:DEGREES
645
root 10.7579 6.03598 11.6551 -88.4239 4.31627 178.472
lowerback -4.82052 -3.37274 4.89733
upperback 0.596182 -4.82579 0.605458
thorax 2.96508 -2.33342 -2.44867
lowerneck 3.5256 -14.8136 -10.6114
upperneck -28.5313 -15.6592 29.5673
head -5.25512 -8.37183 12.1243
rclavicle -3.33958e-014 -5.41688e-015
rhumerus 31.9035 -34.2204 -32.1758
rradius 119.969
rwrist -23.0802
rhand -19.548 -42.527
rfingers 7.12502
rthumb 6.7762 -72.3985
lclavicle -3.33958e-014 -5.41688e-015
lhumerus 17.4292 48.7423 2.43827
lradius 108.367
lwrist 34.2334
lhand -5.63818 -24.9347
lfingers 7.12502
lthumb 20.1801 4.03708
rfemur 1.60862 15.4248 -9.21946
rtibia -1.27222e-014
rfoot 31.0639 -24.1528
rtoes 31.1624
lfemur -11.8308 -21.6648 2.58219
ltibia 18.781
lfoot 37.6165 11.2227
ltoes 18.4891
646
root 10.7583 6.03653 11.6561 -88.4398 4.25945 178.457
lowerback -4.79998 -3.37227 4.94997
upperback 0.605317 -4.82828 0.621317
thorax 2.96001 -2.33409 -2.4605
lowerneck 3.4967 -14.8185 -10.6328
upperneck -28.5203 -15.6628 29.6031
head -5.23853 -8.37259 12.1347
rclavicle 5.40694e-014 5.19325e-015
rhumerus 31.9127 -34.2223 -32.1619
rradius 119.951
rwrist -23.0605
rhand -19.5476 -42.4869
rfingers 7.12502
rthumb 6.77658 -72.3584
lclavicle 5.40694e-014 5.19325e-015
lhumerus 17.469 48.7557 2.47656
lradius 108.36
lwrist 34.2154
lhand -5.60878 -24.9097
lfingers 7.12502
lthumb 20.2084 4.05913
rfemur 1.63048 15.4211 -9.15111
rtibia 3.18055e-015
rfoot 31.0106 -24.2004
rtoes 31.3734
lfemur -11.8277 -21.6658 2.64541
ltibia 18.7907
lfoot 37.6248 11.2841
ltoes 18.5948
647
root 10.7585 6.03689 11.6571 -88.4508 4.19561 178.434
lowerback -4.78829 -3.37426 5.01111
upperback 0.613332 -4.83513 0.639238
thorax 2.95793 -2.33673 -2.47573
lowerneck 3.49288 -14.8209 -10.6496
upperneck -28.5397 -15.6578 29.6432
head -5.23752 -8.37084 12.1531
rclavicle 6.36111e-014 1.963e-015
rhumerus 31.9186 -34.2241 -32.1496
rradius 119.936
rwrist -23.0402
rhand -19.5494 -42.4509
rfingers 7.12502
rthumb 6.77482 -72.3225
lclavicle 6.36111e-014 1.963e-015
lhumerus 17.5096 48.7678 2.51487
lradius 108.356
lwrist 34.1985
lhand -5.58387 -24.891
lfingers 7.12502
lthumb 20.2323 4.07534
rfemur 1.65252 15.4071 -9.07217
rtibia 3.18055e-015
rfoot 30.9752 -24.1983
rtoes 31.4766
lfemur -11.8335 -21.6674 2.72008
ltibia 18.7988
lfoot 37.6242 11.3579
ltoes 18.7591
648
root 10.7587 6.03711 11.6577 -88.4607 4.14689 178.406
lowerback -4.77997 -3.37862 5.05857
upperback 0.620903 -4.84424 0.651784
thorax 2.95772 -2.3406 -2.48929
lowerneck 3.52031 -14.819 -10.6573
upperneck -28.5965 -15.6402 29.6867
head -5.25687 -8.36524 12.1803
rclavicle 1.11319e-014 -7.77745e-015
rhumerus 31.9182 -34.2276 -32.1386
rradius 119.927
rwrist -23.0214
rhand -19.5571 -42.4249
rfingers 7.12502
rthumb 6.76739 -72.2967
lclavicle 1.11319e-014 -7.77745e-015
lhumerus 17.5468 48.78 2.55148
lradius 108.355
lwrist 34.176
lhand -5.55398 -24.902
lfingers 7.12502
lthumb 20.2611 4.06124
rfemur 1.67713 15.3874 -9.00684
rtibia -8.74653e-015
rfoot 30.974 -24.1467
rtoes 31.4217
lfemur -11.8406 -21.6783 2.77867
ltibia 18.8032
lfoot 37.6162 11.4105
ltoes 18.8838
649
root 10.7589 6.0373 11.6582 -88.4705 4.12515 178.379
lowerback -4.77155 -3.38381 5.07888
upperback 0.627962 -4.85239 0.65566
thorax 2.9584 -2.34429 -2.49668
lowerneck 3.56998 -14.8131 -10.6532
upperneck -28.6799 -15.6121 29.7265
head -5.29257 -8.35597 12.2112
rclavicle 5.40694e-014 2.41026e-015
rhumerus 31.9141 -34.2337 -32.1304
rradius 119.925
rwrist -23.0038
rhand -19.5667 -42.4098
rfingers 7.12502
rthumb 6.7581 -72.2819
lclavicle 5.40694e-014 2.41026e-015
lhumerus 17.5791 48.7914 2.58327
lradius 108.354
lwrist 34.1552
lhand -5.52122 -24.9349
lfingers 7.12502
lthumb 20.2926 4.02497
rfemur 1.70181 15.3679 -8.96996
rtibia 2.78299e-015
rfoot 31.0052 -24.067
rtoes 31.3043
lfemur -11.8452 -21.6961 2.80663
ltibia 18.8025
lfoot 37.5998 11.4502
ltoes 18.9928
650
root 10.7593 6.03745 11.6586 -88.4789 4.12334 178.355
lowerback -4.76399 -3.38867 5.07947
upperback 0.634148 -4.85861 0.652992
thorax 2.95981 -2.34724 -2.49982
lowerneck 3.61287 -14.8075 -10.6367
upperneck -28.7533 -15.5867 29.749
head -5.32713 -8.34749 12.2323
rclavicle -2.54444e-014 3.40419e-015
rhumerus 31.9093 -34.2432 -32.1285
rradius 119.93
rwrist -22.9894
rhand -19.5697 -42.411
rfingers 7.12502
rthumb 6.75518 -72.2832
lclavicle -2.54444e-014 3.40419e-015
lhumerus 17.6026 48.7997 2.60411
lradius 108.354
lwrist 34.1442
lhand -5.49773 -24.9715
lfingers 7.12502
lthumb 20.3151 3.98604
rfemur 1.72457 15.3504 -8.95567
rtibia 1.19271e-014
rfoot 31.0368 -23.9951
rtoes 31.1799
lfemur -11.8497 -21.7128 2.81151
ltibia 18.7998
lfoot 37.5721 11.4713
ltoes 19.0199
651
root 10.7596 6.03748 11.6591 -88.4881 4.12879 178.336
lowerback -4.75626 -3.39209 5.07447
upperback 0.641061 -4.86244 0.647188
thorax 2.96223 -2.34901 -2.50298
lowerneck 3.62066 -14.808 -10.6121
upperneck -28.7823 -15.579 29.7458
head -5.3423 -8.34491 12.2324
rclavicle -5.24792e-014 2.45748e-014
rhumerus 31.905 -34.2564 -32.1358
rradius 119.94
rwrist -22.9799
rhand -19.5613 -42.4235
rfingers 7.12502
rthumb 6.76337 -72.2955
lclavicle -5.24792e-014 2.45748e-014
lhumerus 17.616 48.8063 2.61326
lradius 108.353
lwrist 34.14
lhand -5.49226 -25.0009
lfingers 7.12502
lthumb 20.3204 3.95603
rfemur 1.74693 15.3381 -8.95239
rtibia 2.26615e-014
rfoot 31.0252 -23.9698
rtoes 31.2268
lfemur -11.8517 -21.7272 2.8058
ltibia 18.7986
lfoot 37.5359 11.4762
ltoes 18.9502
652
root 10.7598 6.03732 11.6596 -88.4981 4.13256 178.325
lowerback -4.74922 -3.39282 5.07317
upperback 0.648646 -4.86299 0.641662
thorax 2.96572 -2.34904 -2.50779
lowerneck 3.59481 -14.8162 -10.5814
upperneck -28.7682 -15.592 29.715
head -5.33811 -8.34952 12.2113
rclavicle -3.18055e-015 6.60959e-015
rhumerus 31.9006 -34.2719 -32.1497
rradius 119.95
rwrist -22.9755
rhand -19.5432 -42.4371
rfingers 7.12502
rthumb 6.78083 -72.3085
lclavicle -3.18055e-015 6.60959e-015
lhumerus 17.6188 48.8098 2.61454
lradius 108.354
lwrist 34.1402
lhand -5.51013 -25.0164
lfingers 7.12502
lthumb 20.3032 3.94232
rfemur 1.76663 15.3328 -8.95082
rtibia 4.37326e-015
rfoot 30.9913 -23.9912
rtoes 31.3838
lfemur -11.8522 -21.7361 2.79902
ltibia 18.8028
lfoot 37.5079 11.4624
ltoes 18.7933
653
root 10.7597 6.03698 11.66 -88.5065 4.13703 178.32
lowerback -4.74478 -3.39107 5.07253
upperback 0.655781 -4.86043 0.637138
thorax 2.97048 -2.34748 -2.51192
lowerneck 3.55203 -14.8297 -10.5465
upperneck -28.7319 -15.6189 29.6646
head -5.32418 -8.35903 12.1769
rclavicle -3.65764e-014 6.18717e-015
rhumerus 31.8927 -34.2898 -32.165
rradius 119.963
rwrist -22.9755
rhand -19.5212 -42.4483
rfingers 7.12502
rthumb 6.80204 -72.319
lclavicle -3.65764e-014 6.18717e-015
lhumerus 17.6117 48.8109 2.61076
lradius 108.359
lwrist 34.1417
lhand -5.54888 -25.0197
lfingers 7.12502
lthumb 20.266 3.94305
rfemur 1.78022 15.3321 -8.95313
rtibia 1.63003e-014
rfoot 30.9622 -24.0272
rtoes 31.571
lfemur -11.8534 -21.7395 2.78995
ltibia 18.8129
lfoot 37.4875 11.4361
ltoes 18.5686
654
root 10.7596 6.03652 11.6601 -88.5113 4.14365 178.318
lowerback -4.7443 -3.38819 5.07065
upperback 0.662246 -4.85653 0.633267
thorax 2.97703 -2.34524 -2.51488
lowerneck 3.50433 -14.8447 -10.5095
upperneck -28.6906 -15.6495 29.6067
head -5.3083 -8.36972 12.1382
rclavicle 4.29375e-014 1.03617e-014
rhumerus 31.8763 -34.308 -32.1801
rradius 119.98
rwrist -22.9766
rhand -19.5005 -42.4553
rfingers 7.12502
rthumb 6.82202 -72.3254
lclavicle 4.29375e-014 1.03617e-014
lhumerus 17.5973 48.812 2.60532
lradius 108.369
lwrist 34.143
lhand -5.60278 -25.0191
lfingers 7.12502
lthumb 20.2142 3.94914
rfemur 1.78659 15.333 -8.96058
rtibia 6.36111e-015
rfoot 30.9476 -24.0556
rtoes 31.715
lfemur -11.8571 -21.7395 2.77884
ltibia 18.8274
lfoot 37.4811 11.4096
ltoes 18.3967
655
root 10.7593 6.03608 11.6601 -88.5135 4.15079 178.316
lowerback -4.74617 -3.38592 5.06846
upperback 0.668187 -4.85357 0.629658
thorax 2.98433 -2.34345 -2.51759
lowerneck 3.45371 -14.8601 -10.4736
upperneck -28.648 -15.6805 29.5506
head -5.29107 -8.38039 12.0999
rclavicle -2.22639e-014 3.14577e-014
rhumerus 31.8506 -34.3245 -32.1928
rradius 120.004
rwrist -22.9797
rhand -19.4887 -42.4682
rfingers 7.12502
rthumb 6.83337 -72.3379
lclavicle -2.22639e-014 3.14577e-014
lhumerus 17.5832 48.8143 2.60494
lradius 108.383
lwrist 34.1434
lhand -5.66096 -25.0183
lfingers 7.12502
lthumb 20.1582 3.95587
rfemur 1.7901 15.3315 -8.96942
rtibia 3.06128e-014
rfoot 30.9498 -24.0708
rtoes 31.8376
lfemur -11.8646 -21.7351 2.7686
ltibia 18.8438
lfoot 37.5019 11.3842
ltoes 18.3689
656
root 10.7591 6.03582 11.6602 -88.5174 4.15866 178.312
lowerback -4.74406 -3.38432 5.06571
upperback 0.674382 -4.85119 0.625081
thorax 2.98958 -2.34201 -2.52075
lowerneck 3.40548 -14.8749 -10.4428
upperneck -28.6064 -15.7098 29.5043
head -5.27307 -8.39085 12.0663
rclavicle -6.36111e-015 1.62755e-014
rhumerus 31.8193 -34.3418 -32.1993
rradius 120.031
rwrist -22.9868
rhand -19.4911 -42.5039
rfingers 7.12502
rthumb 6.83111 -72.3737
lclavicle -6.36111e-015 1.62755e-014
lhumerus 17.5786 48.8219 2.61411
lradius 108.394
lwrist 34.1375
lhand -5.70756 -25.0163
lfingers 7.12502
lthumb 20.1135 3.96256
rfemur 1.79645 15.3297 -8.97802
rtibia 1.43125e-014
rfoot 30.9519 -24.0852
rtoes 31.9403
lfemur -11.8713 -21.7288 2.75776
ltibia 18.8605
lfoot 37.5442 11.3576
ltoes 18.4723
657
root 10.7588 6.03585 11.6602 -88.5235 4.15638 178.306
lowerback -4.73646 -3.38308 5.07424
upperback 0.680804 -4.84971 0.621942
thorax 2.99113 -2.34096 -2.52832
lowerneck 3.36689 -14.8873 -10.4185
upperneck -28.5707 -15.7342 29.4711
head -5.25726 -8.40017 12.0404
rclavicle 3.33958e-014 -1.61513e-014
rhumerus 31.7892 -34.3604 -32.2006
rradius 120.056
rwrist -22.9931
rhand -19.5029 -42.553
rfingers 7.12502
rthumb 6.81973 -72.4231
lclavicle 3.33958e-014 -1.61513e-014
lhumerus 17.5812 48.8361 2.62825
lradius 108.402
lwrist 34.1268
lhand -5.73922 -25.0153
lfingers 7.12502
lthumb 20.083 3.9667
rfemur 1.80597 15.3276 -8.97357
rtibia 8.34896e-015
rfoot 30.9497 -24.0949
rtoes 32.0494
lfemur -11.8765 -21.7196 2.75825
ltibia 18.8758
lfoot 37.607 11.3217
ltoes 18.624
658
root 10.7586 6.03623 11.66 -88.5288 4.13588 178.293
lowerback -4.72644 -3.38364 5.10136
upperback 0.686524 -4.85178 0.623248
thorax 2.98922 -2.34156 -2.54158
lowerneck 3.32973 -14.898 -10.4049
upperneck -28.5322 -15.7563 29.4513
head -5.23831 -8.40883 12.0209
rclavicle -1.11319e-014 9.79014e-015
rhumerus 31.7717 -34.3799 -32.1989
rradius 120.07
rwrist -22.996
rhand -19.5209 -42.5953
rfingers 7.12502
rthumb 6.80234 -72.466
lclavicle -1.11319e-014 9.79014e-015
lhumerus 17.587 48.8547 2.64103
lradius 108.406
lwrist 34.1189
lhand -5.75657 -25.014
lfingers 7.12502
lthumb 20.0663 3.96982
rfemur 1.81834 15.3189 -8.94644
rtibia 9.93923e-015
rfoot 30.9465 -24.1008
rtoes 32.1405
lfemur -11.8859 -21.7001 2.78117
ltibia 18.887
lfoot 37.6816 11.2648
ltoes 18.6598
